<?xml version="1.0" standalone="no"?>
<!DOCTYPE svg PUBLIC "-//W3C//DTD SVG 1.1//EN" "http://www.w3.org/Graphics/SVG/1.1/DTD/svg11.dtd" >
<svg xmlns="http://www.w3.org/2000/svg">
<metadata>
This is a custom SVG font generated by IcoMoon.
<iconset grid="32"></iconset>
</metadata>
<defs>
<font id="Bildungsserver_Netbook" horiz-adv-x="1024" >
<font-face units-per-em="1024" ascent="960" descent="-64" />
<missing-glyph horiz-adv-x="1024" />
<glyph class="hidden" unicode="&#xf000;" d="M0,960L 1024 -64L0 -64 z" horiz-adv-x="0" />
<glyph unicode="&#xe000;" d="M 416.96,474.4c0,14.048, 4,25.504, 12,34.304s 16.96,15.744, 26.88,20.864
		c-9.28,11.52-13.92,25.6-13.92,42.24c0,8.64, 1.664,16.704, 5.024,24.256c 3.328,7.488, 8.16,14.048, 14.4,19.648
		c 6.208,5.6, 13.856,10.016, 22.784,13.216c 8.96,3.2, 18.88,4.768, 29.792,4.768c 16,0, 28.928-2.368, 38.88-7.2
		c 9.92-4.8, 17.6-9.28, 23.040-13.44L 564.8,582.4c-4.8,3.84-11.36,7.84-19.68,12s-18.24,6.208-29.76,6.208
		c-12.192,0-21.376-2.208-27.584-6.72c-6.24-4.48-9.376-10.528-9.376-18.208c0-10.56, 3.296-19.296, 9.856-26.144
		c 6.56-6.912, 14.464-13.696, 23.744-20.416l 36-25.44c 8.672-6.080, 16.576-11.936, 23.776-17.536c 7.2-5.6, 13.44-11.328, 18.72-17.28
		c 5.28-5.92, 9.344-12.256, 12.224-18.976s 4.32-14.048, 4.32-22.048c0-15.36-4.16-27.36-12.48-36c-8.32-8.672-18.24-15.68-29.76-21.12
		c 4.768-6.72, 8.576-13.696, 11.296-20.864c 2.72-7.232, 4.064-14.976, 4.064-23.296c0-7.68-1.504-15.36-4.576-23.040
		c-3.040-7.68-7.648-14.56-13.92-20.672c-6.24-6.048-14.144-11.040-23.744-14.88c-9.632-3.84-20.8-5.76-33.632-5.76
		c-9.28,0-17.6,0.768-24.928,2.368c-7.36,1.632-13.856,3.68-19.424,6.24c-5.632,2.56-10.496,5.376-14.656,8.416
		s-7.84,6.016-11.040,8.864l 13.44,33.12c 2.208-2.24, 4.96-4.704, 8.16-7.424s 7.136-5.344, 11.744-7.936
		c 4.672-2.528, 9.856-4.704, 15.616-6.464c 5.76-1.76, 12.32-2.624, 19.648-2.624c 14.080,0, 24.16,2.784, 30.24,8.384
		c 6.048,5.632, 9.12,11.584, 9.12,18.016c0,9.632-2.656,17.952-7.936,24.96s-14.144,15.2-26.624,24.48l-33.6,24.96
		c-8,5.792-15.424,11.424-22.304,17.024c-6.912,5.632-12.896,11.424-18.016,17.536c-5.12,6.080-9.216,12.576-12.256,19.424
		C 418.464,458.464, 416.96,466.048, 416.96,474.4z M 475.040,509.44c-6.368-3.52-11.584-7.52-15.584-12S 453.44,487.040, 453.44,479.68
		c0-10.24, 4.096-18.912, 12.256-25.952s 18.016-14.88, 29.536-23.488l 32.16-24l 18.208-14.88c 6.72,3.488, 12.32,7.584, 16.8,12.224
		c 4.48,4.672, 6.72,10.464, 6.72,17.536c0,9.92-3.68,18.4-11.040,25.44c-7.36,7.040-17.632,15.2-30.72,24.48l-33.6,24.512L 475.040,509.44z"  />
<glyph unicode="&#xe001;" d="M 397.568,280.992l 65.44,65.376c 21.6-12.224, 46.528-19.264, 73.088-19.264
		c 82.080,0, 148.928,66.848, 148.928,148.928c0,82.208-66.848,149.024-148.928,149.024c-82.144,0-149.024-66.816-149.024-149.024
		c0-30.688, 9.408-59.296, 25.408-83.008L 348.96,329.6c-6.688-6.72-10.016-15.52-10.016-24.32s 3.328-17.6, 10.016-24.288
		C 362.368,267.584, 384.192,267.584, 397.568,280.992z M 536.096,579.232c 56.8,0, 103.136-46.208, 103.136-103.168c0-56.8-46.304-103.136-103.136-103.136
		c-56.896,0-103.168,46.304-103.168,103.136C 432.928,532.992, 479.2,579.232, 536.096,579.232z"  />
<glyph unicode="&#xe002;" d="M 684.896,341.12L 684.896,341.12l-106.848,106.816l 106.848,106.592
		c 1.152,1.184, 1.984,2.528, 2.528,3.968c 1.44,3.904, 0.64,8.48-2.528,11.616l-50.464,50.432c-3.168,3.168-7.712,3.968-11.648,2.528
		c-1.408-0.544-2.784-1.376-3.904-2.528L 512,513.984l-106.848,106.784c-1.152,1.152-2.528,2.016-3.904,2.496
		c-3.968,1.504-8.512,0.672-11.648-2.496l-50.464-50.336c-3.168-3.168-4-7.68-2.56-11.616c 0.576-1.44, 1.376-2.752, 2.56-3.936
		l 106.816-106.784l-106.816-106.656c-1.184-1.152-2.016-2.528-2.56-3.904c-1.44-3.904-0.608-8.512, 2.56-11.616l 50.464-50.496
		c 3.168-3.136, 7.712-3.968, 11.648-2.496c 1.376,0.544, 2.752,1.376, 3.904,2.496L 512,382.016l 106.88-106.816
		c 1.12-1.12, 2.496-1.984, 3.904-2.496c 3.936-1.472, 8.512-0.672, 11.648,2.496l 50.464,50.368c 3.168,3.136, 3.968,7.712, 2.528,11.616
		C 686.88,338.624, 686.048,339.968, 684.896,341.12"  />
<glyph unicode="&#xe003;" d="M 403.264,85.888c-39.328-36.576-85.76-54.88-139.264-54.88
		c-84,0-148.512,27.744-193.6,83.36c-45.056,55.616-67.584,132.576-67.584,230.88c0,91.424, 38.752,183.488, 116.32,276.512
		c 77.536,92.864, 170.912,163.264, 280.128,211.264l 50.4-81.376c-86.4-41.952-154.080-99.936-203.072-155.552C 197.632,540.512, 169.344,448, 161.696,384l 64.256,0 
		c 47.392,0, 86.016,4.448, 115.808-6.176c 29.856-10.688, 53.952-20.16, 72.32-39.296c 17.568-18.24, 30.016-36.16, 37.248-58.272
		c 7.328-22.112, 10.912-43.936, 10.912-67.424C 462.208,164, 442.56,122.368, 403.264,85.888z M 1025.632,212.8c0,23.488-3.616,45.312-10.944,67.424
		c-7.264,22.112-19.648,40.032-37.312,58.272c-18.272,19.136-42.4,28.608-72.192,39.296C 875.36,388.448, 836.736,384, 789.312,384l-64.256,0 
		c 7.68,64, 35.968,156.512, 84.864,212.064c 48.992,55.616, 116.672,113.632, 203.136,155.552l-50.432,81.376c-109.184-48-202.56-118.368-280.128-211.264
		c-77.568-92.992-116.288-185.056-116.288-276.512c0-98.304, 22.528-175.264, 67.584-230.88s 109.6-83.36, 193.568-83.36c 53.504,0, 99.904,18.304, 139.264,54.88
		C 1005.952,122.368, 1025.632,164, 1025.632,212.8z"  />
<glyph unicode="&#xe004;" d="M 842.016,370.528c-13.632,13.408-43.872,20.576-89.984,21.184
		c-31.168,0.352-68.704-2.4-108.16-7.936c-17.696,10.176-35.904,21.28-50.176,34.656c-38.432,35.904-70.56,85.76-90.56,140.608
		c 1.312,5.12, 2.4,9.664, 3.456,14.208c0,0, 21.664,123.072, 15.936,164.672c-0.768,5.728-1.28,7.36-2.816,11.808l-1.92,4.832
		c-5.888,13.6-17.44,28-35.552,27.2l-10.624,0.384L 471.36,782.144 c-20.192,0-36.672-10.336-40.992-25.792c-13.152-48.448, 0.416-120.896, 24.992-214.752
		l-6.304-15.296c-17.632-42.912-39.616-86.048-59.072-124.192l-2.56-4.928c-20.448-40.032-39.008-74.016-55.808-102.816L 314.24,285.184
		c-1.312-0.672-31.072-16.448-38.016-20.672c-59.296-35.36-98.528-75.52-105.024-107.392c-2.048-10.176-0.544-23.232, 10.016-29.216l 16.768-8.48
		c 7.328-3.616, 15.008-5.504, 22.88-5.504c 42.176,0, 91.2,52.576, 158.688,170.368c 77.92,25.376, 166.624,46.464, 244.416,58.048
		c 59.296-33.376, 132.128-56.544, 178.144-56.544c 8.128,0, 15.2,0.768, 20.928,2.304c 8.8,2.336, 16.256,7.328, 20.768,14.176
		c 8.896,13.472, 10.72,31.936, 8.32,50.912C 851.36,358.816, 846.88,365.76, 842.016,370.528 M 211.616,145.952c 7.68,21.056, 38.176,62.688, 83.232,99.552
		c 2.816,2.304, 9.792,8.832, 16.224,14.912C 263.936,185.28, 232.384,155.36, 211.616,145.952 M 478.432,760.32c 13.568,0, 21.28-34.176, 21.92-66.208
		c 0.672-32.064-6.848-54.56-16.16-71.232c-7.68,24.672-11.424,63.488-11.424,88.896C 472.736,711.776, 472.224,760.32, 478.432,760.32 M 398.848,322.496
		c 9.44,16.928, 19.296,34.752, 29.344,53.664c 24.512,46.304, 39.968,82.56, 51.488,112.352c 22.912-41.696, 51.424-77.12, 84.992-105.504
		c 4.192-3.52, 8.608-7.104, 13.248-10.656C 509.696,358.88, 450.752,342.464, 398.848,322.496 M 828.864,326.336
		c-4.128-2.592-16.064-4.096-23.68-4.096c-24.672,0-55.264,11.296-98.112,29.664c 16.512,1.216, 31.552,1.824, 45.088,1.824
		c 24.768,0, 32.128,0.096, 56.352-6.048C 832.736,341.472, 833.056,328.96, 828.864,326.336 M 903.424,760.576l-142.88,142.88
		C 729.472,934.56, 668,960, 624,960l-480,0 C 100,960, 64,924, 64,880l0-864 C 64-28, 100-64, 144-64l 736,0 c 44,0, 80,36, 80,80l0,608 
		C 960,668, 934.528,729.472, 903.424,760.576 M 858.176,715.328C 861.312,712.192, 864.448,708.352, 867.424,704L 704,704 L 704,867.456 
		c 4.352-3.072, 8.192-6.144, 11.328-9.28L 858.176,715.328z M 896,16c0-8.672-7.328-16-16-16l-736,0 C 135.328,0, 128,7.328, 128,16l0,864 
		C 128,888.672, 135.328,896, 144,896l 480,0 c 4.8,0, 10.24-0.64, 16-1.696L 640,640 l 254.304,0 C 895.36,634.24, 896,628.832, 896,624L 896,16 z"  />
<glyph unicode="&#xe005;" d="M 160,443.040L 160,115.904L 487.104,448L 523.424,448L 864,115.904L 864,443.040L 523.424,768L 487.104,768 	z"  />
<glyph unicode="&#xe006;" d="M 736,736l-96,0 L 640,808.544 
		C 640,844.896, 609.44,864, 576,864l-152.96,0 C 389.536,864, 352,844.896, 352,808.544L 352,736 L 256,736 l0-128 l 480,0 L 736,736 z M 576,736l-160,0 L 416,800 c0,0-0.096,0,0,0l 160,0 l0,0L 576,736 z M 864,0L 864,541.952 L 864,709.344 
		C 864,727.52, 835.552,736, 818.752,736L 768,736 l0-96 l 32,0 l0-98.048 L 800,64 l-288.672,0 l-85.184,0 L 192,64 L 192,640 l 32,0 L 224,736 L 149.024,736 C 132.32,736, 128,727.52, 128,709.344L 128,48 
		C 128,29.856, 132.32,0, 149.024,0L 416,0 "  />
<glyph unicode="&#xe007;" d="M 502.88,569.312l 79.648-120.992l-79.648-121.6l-61.408,0 l 66.272,121.6l-66.272,120.992L 502.88,569.312 z"  />
<glyph unicode="&#xe008;" d="M 448,768l 128,0 l0-128 l-128,0 L 448,768 z M 640,128l-256,0 l0,64 l 64,0 l0,256 l-64,0 l0,64 l 192,0 l0-320 l 64,0 L 640,128 z"  />
<glyph unicode="&#xe009;" d="M 384,576l 256,0 l0-256 l-64,0 l0,192 l 28.416,4.864l-193.92-193.92l-23.52,24l 193.44,193.44L 576,512l-192,0 L 384,576 z"  />
<glyph unicode="&#xe00a;" d="M 421.44,221.568c0-49.952, 40.608-90.56, 90.56-90.56s 90.56,40.64, 90.56,90.56
		c0,50.016-40.608,90.56-90.56,90.56S 421.44,271.552, 421.44,221.568 M 512,764.992c 50.048,0, 90.56-40.512, 90.56-90.56l-28.32-271.744l-124.512,0 L 421.44,674.432
		C 421.44,724.512, 461.952,764.992, 512,764.992"  />
<glyph unicode="&#xe00b;" d="M 320,768l 384,0 l0-96 L 320,672 L 320,768 z M 832,640L 192,640 c-25.152,0-61.696-36.576-61.696-61.696l-0.128-228.512
		C 130.176,324.64, 166.72,320, 191.872,320L 320,320 l0-192 l 384,0 l0,192 l 128.16,0 c 25.12,0, 61.664,4.64, 61.664,29.824l-0.16,228.512C 893.664,603.424, 857.12,640, 832,640z
		 M 640,192l-256,0 l0,224 l 256,0 L 640,192 z M 842.432,562.336c0-18.304-14.848-33.152-33.152-33.152S 776.128,544, 776.128,562.336s 14.848,33.184, 33.152,33.184
		S 842.432,580.64, 842.432,562.336"  />
<glyph unicode="&#xe00c;" d="M 670.944,843.936L 670.752,320L 192,320.192L 670.944,843.936L 670.944,843.936z M 706.144,842.688
		L 704,512l 288,0 L 706.144,842.688L 706.144,842.688z M 971.872,224l-211.584,0 l 234.784,257.28L 992,480l-288,0 l0-192 l-160,0 l0-64 l-32,0 l0,64 L 192,288 l 60.544-64L 54.272,224 
		c-28.448,0-51.584-19.552-51.584-48c0-28.576, 23.136-48, 51.584-48l 917.6,0 c 28.512,0, 51.616,19.424, 51.616,48
		C 1023.488,204.448, 1000.384,224, 971.872,224z"  />
<glyph unicode="&#xe00d;" d="M 416,128L 832,608L 785.92,654.080L 416,352L 297.92,502.080L 204.16,403.84 	z"  />
<glyph unicode="&#xe00e;" d="M 416,544l 96,0 l0-96 l-96,0 L 416,544 z M 544,544l 96,0 l0-96 l-96,0 L 544,544 z M 672,544l 96,0 l0-96 l-95.328,0 L 672,544z
		 M 288,288l 96,0 l0-96 L 288,192 L 288,288 z M 416,288l 96,0 l0-96 l-96,0 L 416,288 z M 544,288l 96,0 l0-96 l-96,0 L 544,288 z M 416,416l 96,0 l0-96 l-96,0 L 416,416 z M 544,416l 96,0 l0-96 l-96,0 L 544,416 z M 672,416l 96,0 l0-96 l-96,0 L 672,416 z M 288,416l 96,0 l0-96 L 288,320 L 288,416 z
		 M 800,832l0-64 l-128,0 L 672,832 l-288,0 l0-64 L 256,768 L 256,832 L 160,832 l0-768 l 736,0 L 896,832 L 800,832 z M 832,128L 224,128 L 224,640 l 608,0 L 832,128 z"  />
<glyph unicode="&#xe00f;" d="M 640,288L 352,448L 640,608 	z"  />
<glyph unicode="&#xe010;" d="M 416,608L 704,448L 416,288 	z"  />
<glyph unicode="&#xe011;" d="M 640,768l-64,0 L 576,808.32 
		C 576,835.616, 530.304,864, 505.184,864l-91.488,0 C 388.512,864, 352,835.616, 352,808.32L 352,768 L 288,768 l0-96 l 352,0 L 640,768 z M 512,768l-96,0 L 416,800 c0,0.064-0.064,0,0,0l 96,0 c0,0,0,0.064,0,0L 512,768 z
		 M 768,576L 768,733.792 C 768,747.424, 755.616,768, 743.008,768L 672,768 l0-64 l 32,0 l0-128 l-192,0 l-96-96l0-224 L 224,256 L 224,704 l 32,0 L 256,768 L 175.808,768 C 163.264,768, 160,747.424, 160,733.792l0-528.896 
		C 160,191.232, 163.264,192, 175.808,192L 416,192 l0-160 l 480,0 L 896,576 L 768,576 z M 544,539.296L 544,448 l-96,0 L 544,539.296z M 832,96L 480,96 l0,288 l 128,0 l0,128 l 224,0 L 832,96 z"  />
<glyph unicode="&#xe012;" d="M 273.696,207.36C 284,197.12, 297.472,192, 310.912,192c 13.504,0, 26.944,5.12, 37.184,15.36
		l 97.056,97.12c 36.288-24.512, 79.968-38.816, 126.976-38.816c 125.632,0, 227.872,102.176, 227.872,227.808s-102.24,227.872-227.872,227.872
		s-227.808-102.24-227.808-227.872c0-40.576, 10.752-78.624, 29.44-111.68l-100.064-100.064C 253.184,261.248, 253.184,227.936, 273.696,207.36z M 572.128,335.808
		c-86.976,0-157.728,70.752-157.728,157.696c0,87.008, 70.752,157.824, 157.728,157.824c 87.008,0, 157.792-70.816, 157.792-157.824
		C 729.92,406.56, 659.136,335.808, 572.128,335.808z"  />
<glyph unicode="&#xe013;" d="M 288,608l 288-160l-288-192L 288,608 z M 704,608l-96,0 l0-352 l 96,0 L 704,608 z"  />
<glyph unicode="&#xe014;" d="M 480,544l 64,0 l0-64 l-64,0 L 480,544 z M 576,544l 64,0 l0-64 l-64,0 L 576,544 z M 384,352l 64,0 l0-64 l-64,0 L 384,352 z M 480,352l 64,0 l0-64 l-64,0 L 480,352 z M 576,352
		l 64,0 l0-64 l-64,0 L 576,352 z M 384,448l 64,0 l0-64 l-64,0 L 384,448 z M 480,448l 64,0 l0-64 l-64,0 L 480,448 z M 576,448l 64,0 l0-64 l-64,0 L 576,448 z M 337.888,441.088 M 640,672l0-32 l-32,0 L 608,672 l-192,0 l0-32 l-32,0 L 384,672 l-64,0 l0-448 l 384,0 L 704,672 L 640,672 z M 672,256
		L 352,256 L 352,576 l 320,0 L 672,256 z"  />
<glyph unicode="&#xe015;" d="M 704,256l-288,192l 288,160L 704,256 z M 288,256l 96,0 L 384,608 L 288,608 L 288,256 z"  />
<glyph unicode="&#xe016;" d="M 736,640L 512,248L 288,640 	z"  />
<glyph unicode="&#xe017;" d="M 452,768L 452,768c 165.696,0, 300-108.704, 300-242.784
		c0-134.080-134.304-242.784-300-242.784c-15.904,0-31.52,1.024-46.784,2.944C 340.768,221.184, 266.368,209.696, 192,208l0,15.68 
		c 40.16,19.616, 72.512,55.328, 72.512,96.128c0,5.696-0.448,11.296-1.248,16.704c-67.872,44.544-111.264,112.512-111.264,188.672
		C 152,659.296, 286.304,768, 452,768 M 774.496,223.808c0-34.944, 22.688-65.568, 57.504-82.336L 832,128 c-64.448,1.44-123.616,11.328-179.424,66.304
		c-13.248-1.632-26.784-2.528-40.576-2.528c-59.648,0-114.656,16.128-158.496,43.168c 90.4,0.32, 175.776,29.312, 240.512,81.696
		c 32.672,26.4, 58.368,57.376, 76.512,92.096c 19.264,36.768, 28.992,75.968, 28.992,116.512c0,6.528-0.288,13.024-0.768,19.456
		c 45.344-37.44, 73.28-88.512, 73.28-144.8c0-65.28-37.6-123.552-96.416-161.696C 774.88,233.472, 774.496,228.672, 774.496,223.808"  />
<glyph unicode="&#x20;" horiz-adv-x="512" />
</font>
</defs>
</svg>
