<?xml version="1.0" standalone="no"?>
<!DOCTYPE svg PUBLIC "-//W3C//DTD SVG 1.1//EN" "http://www.w3.org/Graphics/SVG/1.1/DTD/svg11.dtd" >
<svg xmlns="http://www.w3.org/2000/svg">
<metadata>
<json>
{
	"fontFamily": "BLEMaster",
	"majorVersion": 1,
	"minorVersion": 0,
	"license": "GPL, CC BY-SA 3.0",
	"version": "Version 1.0",
	"fontId": "BLEMaster",
	"psName": "BLEMaster",
	"subFamily": "Regular",
	"fullName": "BLEMaster",
	"description": "Font generated by IcoMoon."
}
</json>
</metadata>
<defs>
<font id="BLEMaster" horiz-adv-x="512">
<font-face units-per-em="512" ascent="480" descent="-32" />
<missing-glyph horiz-adv-x="512" />
<glyph unicode="&#x20;" d="" horiz-adv-x="256" />
<glyph unicode="&#xe600;" d="M149.333 330.667h42.667v-42.667h-42.666v42.666zM224 320h149.333v-21.334h-149.333v21.334zM149.333 245.333h42.667v-42.667h-42.666v42.666zM224 234.667h149.333v-21.333h-149.333v21.334zM149.333 160h42.667v-42.666h-42.666v42.666zM224 149.334h149.333v-21.334h-149.333v21.334z" />
<glyph unicode="&#xe601;" d="M136.534 172.8c34.133-34.133 34.133-68.267 68.267-68.267 34.112 0 68.256 34.134 102.4 68.267s68.267 68.267 68.267 102.4c0 34.133-34.133 34.133-68.267 68.266-34.112 34.123 68.267 136.534 102.379 136.534 34.154 0 102.422-102.411 102.422-102.411 0-68.256-70.134-206.656-136.534-273.056-66.379-66.4-204.8-136.534-273.056-136.534 0 0-102.41 68.267-102.41 102.421 0 34.112 102.41 136.512 136.534 102.378z" />
<glyph unicode="&#xe602;" d="M170.848 140.906c3.435-3.413 7.925-5.12 12.405-5.12 4.501 0 8.982 1.707 12.394 5.12l32.352 32.373c12.096-8.192 26.656-12.938 42.325-12.938 41.877 0 75.957 34.058 75.957 75.936s-34.080 75.936-75.957 75.936-75.936-34.059-75.936-75.936c0-13.547 3.584-26.23 9.814-37.227l-33.355-33.354c-6.838-6.848-6.838-17.93 0-24.789zM270.325 183.702c-28.992 0-52.576 23.584-52.576 52.587 0 28.981 23.584 52.587 52.576 52.587 29.002 0 52.598-23.606 52.598-52.587-0.010-29.002-23.594-52.587-52.597-52.587z" />
<glyph unicode="&#xe603;" d="M394.666 193.387l-138.667 105.099-138.667-105.099v42.848l138.667 105.099 138.667-105.109v-42.838zM362.666 197.195v-101.195h-74.666v64h-64v-64h-74.666v101.195l106.666 76.171 106.666-76.171z" />
<glyph unicode="&#xe604;" d="M154.24 159.296c-20.363 0-36.906-16.63-36.906-36.853 0-20.352 16.544-36.768 36.906-36.768 20.448 0 36.971 16.416 36.971 36.768 0.011 20.245-16.523 36.853-36.971 36.853zM117.334 268.438v-53.142c32 0 67.178-13.558 91.691-38.080 24.501-24.438 38.016-57.13 38.016-91.861h53.386c-0.010 100.95-87.094 183.082-183.094 183.082zM117.334 362.666v-53.184c128 0 224.010-100.565 224.010-224.149h53.322c0 152.864-128 277.334-277.334 277.334z" />
<glyph unicode="&#xe605;" d="M256 213.824l63.52 63.51h-52.853v64h-21.334v-64h-52.843l63.51-63.51zM314.24 242.048l-18.048-17.803 64.406-24.064-104.534-38.954-104.49 38.954 64.512 24.064-18.304 17.803-69.781-25.984v-63.51l128-47.637 128 47.637v63.51l-69.76 25.984z" />
<glyph unicode="&#xe606;" d="M364.981 198.208c-4.544 4.48-14.635 6.858-30.005 7.062-10.389 0.118-22.89-0.8-36.043-2.646-5.899 3.392-11.978 7.094-16.726 11.552-12.822 11.968-23.52 28.587-30.186 46.87 0.438 1.707 0.79 3.221 1.142 4.736 0 0 7.232 41.024 5.312 54.89-0.256 1.91-0.416 2.454-0.938 3.936l-0.63 1.611c-1.963 4.534-5.814 6.966-11.851 6.698l-3.53-2.25h-0.096c-6.731 0-12.224-1.088-13.654-6.229-4.394-16.149 0.128-39.114 8.32-70.4l-2.090-4.501c-5.877-14.304-13.206-28.384-19.702-41.099l-0.843-1.504c-6.816-13.344-13.013-24.608-18.613-34.197l-5.792-3.029c-0.427-0.224-10.346-5.462-12.672-6.87-19.755-11.786-32.832-25.163-34.998-35.786-0.683-3.392-0.192-7.733 3.339-9.728l5.6-2.827c2.442-1.205 4.992-1.834 7.616-1.834 14.070 0 30.411 17.526 52.896 56.789 25.974 8.459 55.552 15.488 81.472 19.349 19.765-11.125 44.043-18.848 59.382-18.848 2.72 0 5.077 0.256 6.976 0.768 2.944 0.779 5.418 2.442 6.923 4.726 2.976 4.49 3.584 10.646 2.774 16.971-0.267 1.888-1.76 4.202-3.382 5.792zM154.858 123.339c2.56 7.019 12.714 20.896 27.733 33.184 0.939 0.768 3.274 2.944 5.408 4.971-15.712-25.034-26.23-35.008-33.142-38.154zM243.786 328.139c4.523 0 7.083-11.392 7.296-22.070 0.224-10.688-2.272-18.186-5.376-23.744-2.571 8.224-3.808 21.162-3.808 29.632 0-0.010-0.192 16.182 1.888 16.182zM217.248 182.197c3.147 5.642 6.442 11.584 9.792 17.888 8.16 15.435 13.312 27.52 17.162 37.451 7.626-13.898 17.142-25.706 28.32-35.168 1.397-1.173 2.87-2.368 4.426-3.552-22.742-4.49-42.389-9.962-59.702-16.618zM360.608 183.478c-1.387-0.864-5.354-1.365-7.894-1.365-8.235 0-18.432 3.765-32.704 9.888 5.493 0.406 10.517 0.608 15.019 0.608 8.256 0 10.709 0.032 18.794-2.016 8.064-2.070 8.182-6.24 6.784-7.115zM385.962 328.224l-47.872 47.616c-10.378 10.368-31.115 18.827-45.781 18.827h-160c-14.666 0-25.642-11.968-25.642-26.635v-288c0-14.666 10.976-26.699 25.642-26.699h245.333c14.666 0 27.69 12.032 27.69 26.699v202.666c0 14.667-9.014 35.158-19.37 45.526zM370.368 313.12c1.046-1.034 2.080-3.786 3.094-3.786h-53.462v54.517c0-1.024 2.219-2.058 3.264-3.104l47.104-47.627zM384 80.032c0-2.901-3.466-5.365-6.358-5.365h-245.333c-2.891 0-4.309 2.464-4.309 5.365v288c0 2.891 1.419 5.301 4.309 5.301h160c1.611 0 6.358-0.181 6.358-0.534v-84.8h83.744c0.363 0 1.589-3.69 1.589-5.302v-202.666z" />
<glyph unicode="&#xe607;" d="M341.334 245.269h-21.334v48.789c0 37.824-27.637 68.48-65.462 68.48-37.834 0-62.538-30.656-62.538-68.48v-48.725h-20.138c-9.418 0-11.862-10.336-11.862-19.755v-122.998c0-9.418 2.442-17.248 11.862-17.248h168.288c9.408 0 11.851 7.829 11.851 17.248v122.998c0 9.418 0.469 19.755-8.938 19.755l-1.728-0.064zM257.462 135.37c-12 0-21.707 9.728-21.707 21.728s9.707 21.707 21.707 21.707 21.707-9.707 21.707-21.707-12.256-21.728-21.707-21.728v0zM288 245.269h-64v48.789c0 18.891 13.109 34.24 32 34.24s32-15.349 32-34.24v-48.789z" />
<glyph unicode="&#xe608;" d="M320 362.666l-182.176-202.666h182.176v202.667zM331.498 352v-117.334h115.67l-115.669 117.334zM266.666 106.666h-10.666v42.666h-118.176l18.602-21.334h-72.278c-10.645 0-19.306-10.688-19.306-21.334 0-10.688 8.662-21.334 19.306-21.334h343.52c10.666 0 19.339 10.646 19.339 21.334 0 10.646-8.672 21.334-19.339 21.334h-78.442l87.274 96h-105.002v-74.666h-64.832v-42.666z" />
<glyph unicode="&#xe609;" d="M212.608 208.683l-9.728 0.064c-8.416 0.022-15.306 6.89-15.317 15.317-0.032 4.042 1.547 7.808 4.384 10.666 2.858 2.858 6.656 4.416 10.688 4.394l35.755-0.149c7.403 0 19.829-1.6 19.894-11.755 0.010-4.672 3.818-8.438 8.459-8.394 4.672 0 8.448 3.808 8.426 8.438-0.086 17.291-14.486 28.501-36.704 28.608l-35.776 0.128c-8.576 0.043-16.63-3.254-22.688-9.334-6.059-6.037-9.355-14.080-9.334-22.688 0.054-8.832 3.669-16.757 9.494-22.592 5.803-5.792 13.824-9.387 22.678-9.387h9.707c4.672 0 8.47 3.637 8.49 8.277 0 4.694-3.766 8.384-8.427 8.406v0zM336.202 223.456c-0.075 18.56-12.598 32.064-29.781 32.128l-12.118 0.064c-4.661 0.022-8.448-3.755-8.48-8.394 0-4.683 3.755-8.458 8.406-8.48l12.118-0.064c8.918 0 12.928-7.712 12.96-15.318 0.022-4-1.546-7.829-4.384-10.666-2.858-2.858-6.635-4.416-10.688-4.394l-38.144 0.171c-17.451 0.043-17.514 8.224-17.504 11.733-0.022 4.672-3.798 8.438-8.48 8.438-4.672-0.042-8.427-3.851-8.427-8.502 0.054-8.022 2.667-14.582 7.466-19.37 5.91-5.92 15.083-9.163 26.891-9.205l38.133-0.149c8.587-0.043 16.651 3.296 22.699 9.334 6.016 6.016 9.344 14.101 9.334 22.678v0z" />
<glyph unicode="&#xe60a;" d="M184.565 201.504l-15.606 0.064c-13.504 0.043-24.523 11.062-24.544 24.544-0.042 6.496 2.475 12.544 7.030 17.109 4.576 4.587 10.666 7.061 17.12 7.040l57.302-0.214c11.872-0.022 31.787-2.56 31.872-18.858 0.032-7.456 6.134-13.504 13.579-13.461 7.488 0 13.536 6.101 13.504 13.547-0.128 27.712-23.221 45.664-58.838 45.834l-57.312 0.224c-13.738 0.064-26.645-5.248-36.363-14.976-9.696-9.686-14.998-22.582-14.966-36.352 0.085-14.166 5.877-26.998 15.211-36.352 9.312-9.312 22.176-15.104 36.352-15.211l15.584-0.022c7.477 0 13.558 6.005 13.578 13.462-0.011 7.466-6.048 13.579-13.504 13.622v0zM382.646 225.142c-0.118 29.77-20.181 51.413-47.733 51.498l-19.413 0.086c-7.445 0.043-13.558-6.005-13.579-13.462 0.010-7.477 6.005-13.547 13.472-13.578l19.413-0.085c14.293-0.022 20.704-12.352 20.768-24.544 0.032-6.443-2.474-12.566-7.040-17.109-4.576-4.587-10.635-7.062-17.12-7.062l-61.13 0.267c-27.958 0.086-28.042 13.205-28.042 18.816-0.032 7.499-6.101 13.504-13.578 13.504-7.488-0.042-13.525-6.144-13.504-13.6 0.064-12.853 4.267-23.349 11.968-31.062 9.462-9.462 24.16-14.666 43.072-14.731l61.13-0.245c13.738-0.064 26.666 5.269 36.363 14.954 9.654 9.664 14.986 22.603 14.954 36.352v0z" />
<glyph unicode="&#xe60b;" d="M234.667 160h42.667v-42.666h-42.666v42.666zM234.667 330.667h42.667v-128h-42.666v128z" />
<glyph unicode="&#xe60c;" d="M330.666 229.046v48.288h-49.301l49.301-48.288zM220.181 238.090l-6.848 6.923c-5.941 5.974-5.941 15.702 0 21.654 2.848 2.89 6.613 4.438 10.645 4.438 4.042 0.010 7.819-1.579 10.656-4.448l25.184-25.376c5.226-5.238 12.896-15.157 5.75-22.39-3.286-3.307-3.253-8.661 0.053-11.914 3.307-3.317 8.672-3.274 11.925 0.010 12.171 12.288 9.909 30.4-5.728 46.186l-25.206 25.386c-6.026 6.091-14.059 9.451-22.635 9.44-8.566 0.010-16.587-3.339-22.645-9.44-6.208-6.282-9.322-14.506-9.334-22.752 0-8.214 3.125-16.438 9.334-22.742l6.869-6.88c3.306-3.317 8.63-3.339 11.925-0.075 3.296 3.317 3.328 8.672 0.054 11.978v0zM318.005 161.13c13.088 13.184 13.781 31.584 1.664 43.776l-8.522 8.608c-3.286 3.307-8.64 3.328-11.936 0.053-3.307-3.307-3.328-8.63-0.053-11.936l8.534-8.608c6.304-6.304 3.69-14.582-1.664-19.99-2.827-2.848-6.624-4.448-10.646-4.438-4.043-0.010-7.808 1.568-10.666 4.438l-26.858 27.104c-12.298 12.363-6.56 18.197-4.075 20.672 3.286 3.317 3.264 8.65-0.042 11.947-3.328 3.286-8.672 3.254-11.958-0.042-5.632-5.707-8.427-12.203-8.427-18.987 0-8.341 4.192-17.13 12.512-25.514l26.859-27.072c6.038-6.091 14.091-9.45 22.646-9.45 8.512 0.010 16.576 3.37 22.635 9.44v0z" />
<glyph unicode="&#xe60d;" d="M373.334 234.667v85.333h-85.334l85.334-85.334zM194.496 250.688l-10.976 11.082c-9.525 9.558-9.525 25.142 0 34.71 4.566 4.63 10.602 7.104 17.066 7.104 6.475 0.022 12.544-2.538 17.088-7.125l40.374-40.672c8.373-8.394 20.672-24.288 9.206-35.872-5.248-5.291-5.205-13.877 0.086-19.104 5.291-5.312 13.899-5.248 19.125 0.022 19.498 19.69 15.872 48.704-9.184 74.016l-40.394 40.683c-9.664 9.77-22.538 15.147-36.288 15.125-13.707 0.022-26.582-5.355-36.288-15.125-9.963-10.058-14.934-23.254-14.954-36.459 0-13.162 5.002-26.358 14.954-36.459l10.998-11.018c5.291-5.291 13.834-5.355 19.125-0.107 5.28 5.302 5.322 13.888 0.064 19.2v0zM351.296 127.328c20.96 21.142 22.080 50.624 2.666 70.166l-13.664 13.792c-5.248 5.291-13.834 5.334-19.125 0.086-5.291-5.291-5.334-13.813-0.086-19.125l13.664-13.792c10.101-10.101 5.92-23.37-2.666-32.043-4.522-4.565-10.624-7.125-17.067-7.104-6.474-0.022-12.522 2.517-17.11 7.104l-43.040 43.435c-19.712 19.808-10.496 29.163-6.518 33.12 5.269 5.312 5.226 13.856-0.064 19.147-5.333 5.269-13.92 5.206-19.168-0.064-9.046-9.142-13.504-19.542-13.504-30.443 0-13.376 6.709-27.456 20.042-40.875l43.040-43.392c9.685-9.771 22.582-15.147 36.288-15.147 13.685 0.022 26.592 5.408 36.31 15.136v0z" />
<glyph unicode="&#xe60e;" d="M202.667 330.667h117.333v-42.667h-117.334v42.666zM367.339 277.333l-213.418-0.085c-8.384 0-15.254-6.88-15.254-15.253l0.245-75.915c0-8.394 7.030-15.253 15.413-15.253l48.341-0.16v-53.334h117.333v53.334l47.424 0.416c8.373 0 16.576 6.858 16.576 15.253v75.563c0 8.373-8.277 15.435-16.661 15.435zM309.334 128h-96v74.666h96v-74.666zM362.666 234.667h-21.334v21.333h21.334v-21.334z" />
<glyph unicode="&#xe60f;" d="M220 134.005l-70.666 92 31.328 32.672 39.35-50.006 123.339 100.661 15.339-15.328z" />
<glyph unicode="&#xe610;" d="M405.334 246.016v-171.35h-298.666v298.666h170.667l-21.334 21.334h-170.667v-341.334h341.333v171.35zM288.214 394.666l21.12-20.651 32-32-64-64 32-32 64 64 53.334-53.333v137.984z" />
<glyph unicode="&#xe611;" d="M301.312 181.334l-49.322 87.51-49.322-87.51z" />
<glyph unicode="&#xe612;" d="M202.667 271.040l87.53-49.312-87.531-49.312zM298.666 277.333h21.334v-106.666h-21.334v106.666z" />
<glyph unicode="&#xe613;" d="M213.333 277.333l87.52-49.322-87.52-49.323z" />
<glyph unicode="&#xe614;" d="M192 352v-43.019l85.334-85.334-85.334-85.334v-42.666l126.624 129.718z" />
<glyph unicode="&#xe615;" d="M309.334 271.040l-87.531-49.312 87.531-49.312zM192 277.333h21.334v-106.666h-21.334v106.666z" />
<glyph unicode="&#xe616;" d="M202.667 266.667l49.322-87.499 49.323 87.499z" />
<glyph unicode="&#xe617;" d="M309.334 277.333l-87.51-49.322 87.51-49.323z" />
<glyph unicode="&#xe618;" d="M320 352v-43.019l-85.334-85.334 85.334-85.334v-42.666l-126.624 129.718z" />
<glyph unicode="&#xe619;" d="M341.334 230.752v46.582h-170.667v32h138.667v32h-160v-64h-32v-170.666h224v58.038l53.334-44.032v154.123l-53.334-44.042zM277.334 192h-106.666v32h106.666v-32z" />
<glyph unicode="&#xe61a;" d="M256.779 12.555l-29.621 109.45-84.075-76.064 34.219 108.106-111.84-18.528 87.243 72.427-104.085 44.886 112.512 13.77-63.285 94.070 102.080-49.28-2.4 113.344 59.275-96.65 59.243 96.693-2.411-113.376 102.091 49.269-63.274-94.048 112.49-13.76-104.085-44.906 87.221-72.406-111.829 18.486 34.229-108.064-84.086 76.022-29.611-109.44zM238.656 161.163l18.123-66.944 18.112 66.944 51.456-46.538-20.938 66.144 68.438-11.328-53.387 44.32 63.712 27.488-68.842 8.416 38.731 57.558-62.486-30.154 1.472 69.334-36.235-59.136-36.267 59.146 1.482-69.365-62.475 30.166 38.72-57.558-68.843-8.427 63.69-27.466-53.376-44.32 68.427 11.339-20.939-66.144 51.424 46.528z" />
<glyph unicode="&#xe61b;" d="M330.998 266.582h-43.925l-31.104-42.005-30.411 41.578-43.626 0.16 51.722-74.666-59.403-84.63h81.749v24.672h-17.504l17.472 26.528 35.456-50.645 46.325-0.555-59.403 84.63 52.651 74.933zM385.962 328.224l-47.872 47.616c-10.378 10.368-31.115 18.827-45.781 18.827h-160c-14.666 0-25.642-11.968-25.642-26.635v-288c0-14.666 10.976-26.699 25.642-26.699h245.333c14.666 0 27.69 12.032 27.69 26.699v202.666c0 14.667-9.014 35.158-19.37 45.526zM370.368 313.12c1.046-1.034 2.080-3.786 3.094-3.786h-53.462v54.517c0-1.024 2.219-2.058 3.264-3.104l47.104-47.627zM384 80.032c0-2.901-3.466-5.365-6.358-5.365h-245.333c-2.891 0-4.309 2.464-4.309 5.365v288c0 2.891 1.419 5.301 4.309 5.301h160c1.611 0 6.358-0.181 6.358-0.534v-84.8h83.744c0.363 0 1.589-3.69 1.589-5.302v-202.666z" />
<glyph unicode="&#xe61c;" d="M352 256v-128h-192v192h128l-26.709 21.334h-122.624v-234.666h234.667v122.944zM323.19 202.666l-14.538 10.901-22.026 20.374 44.043 43.2-22.016 21.611-44.022-44.245-18.656 21.91-11.306 14.582v-88.331z" />
<glyph unicode="&#xe61d;" d="M149.333 223.413h62.357v-20.747h-62.358v20.747zM149.333 180.8h62.357v-20.8h-62.358v20.8zM149.333 138.123h62.357v-20.789h-62.358v20.789zM275.147 158.88h61.291c-4.768-23.69-25.77-41.546-50.89-41.546-28.704 0-51.936 23.286-51.936 51.936 0 25.163 17.856 46.123 41.547 50.933v-61.322zM306.293 242.016c28.726 0 51.957-23.285 51.957-51.946 0-3.552-0.352-4.694-1.024-8.043l-58.56-0.693 0.406 59.626c3.339 0.704 3.68 1.056 7.221 1.056v0zM385.962 328.224l-47.872 47.616c-10.378 10.368-31.115 18.827-45.781 18.827h-160c-14.666 0-25.642-11.968-25.642-26.635v-288c0-14.666 10.976-26.699 25.642-26.699h245.333c14.666 0 27.69 12.032 27.69 26.699v202.666c0 14.667-9.014 35.158-19.37 45.526zM370.368 313.12c1.046-1.034 2.080-3.786 3.094-3.786h-53.462v54.517c0-1.024 2.219-2.058 3.264-3.104l47.104-47.627zM384 80.032c0-2.901-3.466-5.365-6.358-5.365h-245.333c-2.891 0-4.309 2.464-4.309 5.365v288c0 2.891 1.419 5.301 4.309 5.301h160c1.611 0 6.358-0.181 6.358-0.534v-84.8h83.744c0.363 0 1.589-3.69 1.589-5.302v-202.666z" />
<glyph unicode="&#xe61e;" d="M385.962 328.224l-47.872 47.616c-10.378 10.368-31.115 18.827-45.781 18.827h-160c-14.666 0-25.642-11.968-25.642-26.635v-288c0-14.666 10.976-26.699 25.642-26.699h245.333c14.666 0 27.69 12.032 27.69 26.699v202.666c0 14.667-9.014 35.158-19.37 45.526zM370.368 313.12c1.046-1.034 2.080-3.786 3.094-3.786h-53.462v54.517c0-1.024 2.219-2.058 3.264-3.104l47.104-47.627zM384 80.032c0-2.901-3.466-5.365-6.358-5.365h-245.333c-2.891 0-4.309 2.464-4.309 5.365v288c0 2.891 1.419 5.301 4.309 5.301h160c1.611 0 6.358-0.181 6.358-0.534v-84.8h83.744c0.363 0 1.589-3.69 1.589-5.302v-202.666zM297.483 236.853h14.358l-16.544-73.408-21.568 103.221h-34.602l-24.992-103.232-18.774 103.232h-36.181l36.672-166.176h35.36l24.746 98.25 22.165-98.25h32.565l42.123 166.176h-55.339v-29.814z" />
<glyph unicode="&#xe61f;" d="M245.333 352h32v-21.334h-32v21.334zM213.333 330.667h32v-21.334h-32v21.334zM245.333 309.333h32v-21.333h-32v21.334zM213.333 288h32v-21.334h-32v21.334zM245.333 266.667h32v-21.334h-32v21.334zM213.333 245.333h32v-21.333h-32v21.334zM245.333 224v-21.334h-32l0.853-74.933c0-5.717 4.63-10.4 10.357-10.4h41.579c5.75 0 10.358 4.672 10.358 10.4l0.853 96.267h-32zM266.666 138.666h-42.666v21.334h42.666v-21.334zM385.962 328.224l-47.872 47.616c-10.378 10.368-31.115 18.827-45.781 18.827h-160c-14.666 0-25.642-11.968-25.642-26.635v-288c0-14.666 10.976-26.699 25.642-26.699h245.333c14.666 0 27.69 12.032 27.69 26.699v202.666c0 14.667-9.014 35.158-19.37 45.526zM370.368 313.12c1.046-1.034 2.080-3.786 3.094-3.786h-53.462v54.517c0-1.024 2.219-2.058 3.264-3.104l47.104-47.627zM384 80.032c0-2.901-3.466-5.365-6.358-5.365h-245.333c-2.891 0-4.309 2.464-4.309 5.365v288c0 2.891 1.419 5.301 4.309 5.301h160c1.611 0 6.358-0.181 6.358-0.534v-84.8h83.744c0.363 0 1.589-3.69 1.589-5.302v-202.666z" />
</font>
</defs>
</svg>
